<svg width="44" height="44" viewBox="0 0 44 44" fill="none" xmlns="http://www.w3.org/2000/svg">
<g filter="url(#filter0_b_29_492)">
<rect width="44" height="44" rx="22" fill="white" fill-opacity="0.07"/>
<path d="M18.9473 32.0001C18.1358 32.0059 17.3426 31.7593 16.6772 31.2944C16.0119 30.8295 15.5072 30.1693 15.2329 29.405C14.9587 28.6407 14.9284 27.8101 15.1463 27.0278C15.3641 26.2455 15.8194 25.5503 16.4491 25.0381C15.9967 24.6717 15.6318 24.2087 15.3812 23.683C15.1305 23.1572 15.0004 22.5821 15.0004 21.9996C15.0004 21.4171 15.1305 20.842 15.3812 20.3163C15.6318 19.7906 15.9967 19.3276 16.4491 18.9611C15.8186 18.4494 15.3626 17.7542 15.1443 16.9718C14.9259 16.1893 14.956 15.3583 15.2304 14.5937C15.5048 13.8291 16.0099 13.1688 16.6758 12.7041C17.3417 12.2395 18.1355 11.9935 18.9473 12.0001L25.0527 12.0001C25.8645 11.9935 26.6583 12.2395 27.3242 12.7041C27.9901 13.1688 28.4952 13.8291 28.7696 14.5937C29.044 15.3583 29.0741 16.1893 28.8557 16.9718C28.6374 17.7542 28.1814 18.4494 27.5509 18.9611C28.1812 19.473 28.637 20.1683 28.8552 20.9507C29.0735 21.7332 29.0433 22.5642 28.769 23.3287C28.4946 24.0933 27.9896 24.7536 27.3239 25.2184C26.6581 25.6832 25.8645 25.9295 25.0527 25.9231C24.2843 25.9241 23.5323 25.7002 22.8893 25.2791V28.0791C22.8848 29.1218 22.4673 30.1202 21.7283 30.8552C20.9893 31.5903 19.9892 32.002 18.9473 32.0001ZM18.9253 25.9241C18.5013 25.9308 18.0887 26.0628 17.7394 26.3034C17.3901 26.544 17.1197 26.8825 16.962 27.2765C16.8044 27.6705 16.7666 28.1022 16.8534 28.5176C16.9402 28.933 17.1478 29.3134 17.4499 29.6111C17.7521 29.9089 18.1355 30.1106 18.5519 30.1909C18.9683 30.2713 19.3991 30.2267 19.7902 30.0628C20.1814 29.8989 20.5154 29.6229 20.7503 29.2697C20.9852 28.9164 21.1106 28.5015 21.1107 28.0771V25.9241H18.9243H18.9253ZM25.0537 19.8471C24.6287 19.8493 24.2138 19.9774 23.8615 20.2153C23.5091 20.4532 23.2351 20.7902 23.0739 21.1838C22.9128 21.5774 22.8718 22.01 22.956 22.4269C23.0403 22.8438 23.246 23.2264 23.5473 23.5264C23.8486 23.8264 24.232 24.0303 24.649 24.1125C25.0661 24.1947 25.4981 24.1514 25.8906 23.9882C26.283 23.8249 26.6184 23.5489 26.8543 23.1951C27.0902 22.8413 27.2161 22.4255 27.2161 22.0001C27.214 21.4277 26.985 20.8795 26.5794 20.4758C26.1738 20.0722 25.6248 19.8461 25.0527 19.8471H25.0537ZM18.9483 19.8471C18.3777 19.8441 17.8292 20.068 17.4236 20.4696C17.018 20.8712 16.7884 21.4176 16.7854 21.9886C16.7823 22.5596 17.0061 23.1085 17.4074 23.5144C17.8087 23.9203 18.3547 24.1501 18.9253 24.1531H21.1107V19.8471H18.9483ZM22.8893 13.7701V18.0771H25.0517C25.6083 18.0797 26.1443 17.8666 26.5473 17.4823C26.9502 17.0981 27.1889 16.5726 27.2131 16.0161V16.4511V15.9231C27.2108 15.3513 26.9821 14.8037 26.5772 14.4002C26.1723 13.9967 25.6242 13.7701 25.0527 13.7701L22.8893 13.7701ZM18.9463 13.7701C18.3757 13.7701 17.8285 13.997 17.425 14.4007C17.0215 14.8045 16.7949 15.3521 16.7949 15.9231C16.7949 16.4941 17.0215 17.0418 17.425 17.4455C17.8285 17.8493 18.3757 18.0761 18.9463 18.0761H21.1107V13.7701H18.9463Z" fill="url(#paint0_linear_29_492)"/>
</g>
<defs>
<filter id="filter0_b_29_492" x="-200" y="-200" width="444" height="444" filterUnits="userSpaceOnUse" color-interpolation-filters="sRGB">
<feFlood flood-opacity="0" result="BackgroundImageFix"/>
<feGaussianBlur in="BackgroundImage" stdDeviation="100"/>
<feComposite in2="SourceAlpha" operator="in" result="effect1_backgroundBlur_29_492"/>
<feBlend mode="normal" in="SourceGraphic" in2="effect1_backgroundBlur_29_492" result="shape"/>
</filter>
<linearGradient id="paint0_linear_29_492" x1="15" y1="12" x2="33.7921" y2="25.1543" gradientUnits="userSpaceOnUse">
<stop stop-color="#0A5EAC"/>
<stop offset="1" stop-color="#0273A0"/>
</linearGradient>
</defs>
</svg>
