<svg width="70" height="70" viewBox="0 0 70 70" fill="none" xmlns="http://www.w3.org/2000/svg">
<rect width="70" height="70" rx="35" fill="#95A9B2" fill-opacity="0.2"/>
<circle cx="35" cy="35" r="27" fill="#BFD1DB"/>
<path d="M27.1507 45.144C25.7907 45.144 24.5747 44.864 23.5027 44.304C22.4467 43.728 21.6147 42.944 21.0067 41.952C20.3987 40.944 20.0947 39.808 20.0947 38.544V28.176H23.7187V38.328C23.7187 39 23.8707 39.608 24.1747 40.152C24.4787 40.68 24.8867 41.104 25.3987 41.424C25.9267 41.744 26.5107 41.904 27.1507 41.904C27.8067 41.904 28.3987 41.744 28.9267 41.424C29.4707 41.104 29.8947 40.68 30.1987 40.152C30.5187 39.608 30.6787 39 30.6787 38.328V28.176H34.1827V38.544C34.1827 39.808 33.8787 40.944 33.2707 41.952C32.6627 42.944 31.8227 43.728 30.7507 44.304C29.6947 44.864 28.4947 45.144 27.1507 45.144ZM37.9708 45V41.904H40.7788V31.296H37.9708V28.2H47.1868V31.296H44.3788V41.904H47.1868V45H37.9708Z" fill="url(#paint0_linear_272_413)"/>
<defs>
<linearGradient id="paint0_linear_272_413" x1="49" y1="51" x2="22.439" y2="17.4824" gradientUnits="userSpaceOnUse">
<stop stop-color="#0A5EAC"/>
<stop offset="1" stop-color="#0028B6"/>
</linearGradient>
</defs>
</svg>
