<svg width="44" height="44" viewBox="0 0 44 44" fill="none" xmlns="http://www.w3.org/2000/svg">
<g filter="url(#filter0_b_29_498)">
<rect width="44" height="44" rx="22" fill="white" fill-opacity="0.07"/>
<path d="M27.416 16.2683C26.3768 16.2876 25.3756 16.6826 24.5807 17.387C23.7858 18.0914 23.2458 19.0623 23.0513 20.1363C22.0754 18.5408 21.3111 16.8128 20.7793 15L18.5272 15V21.2893C18.5272 21.8842 18.3025 22.4548 17.9025 22.8755C17.5026 23.2962 16.9602 23.5325 16.3946 23.5325C15.829 23.5325 15.2866 23.2962 14.8867 22.8755C14.4868 22.4548 14.2621 21.8842 14.2621 21.2893V15L12 15.0524V21.3417C12.0066 22.5649 12.4749 23.7353 13.3019 24.5953C14.1288 25.4554 15.2467 25.9346 16.4096 25.9277C17.5724 25.9207 18.6851 25.4281 19.5027 24.5583C20.3203 23.6884 20.7759 22.5125 20.7693 21.2893V20.2411C21.2474 21.2275 21.7971 22.1737 22.4136 23.0713L21.0384 30H23.3503L24.3468 24.9581C25.2703 25.5824 26.3482 25.9068 27.4459 25.891C28.6538 25.891 29.8121 25.3863 30.6661 24.4879C31.5202 23.5896 32 22.3711 32 21.1006C32 19.8301 31.5202 18.6117 30.6661 17.7133C29.8121 16.815 28.6538 16.3103 27.4459 16.3103L27.416 16.2683ZM27.416 23.4277C26.4797 23.3959 25.5823 23.0257 24.8749 22.3795L25.1041 21.4256V21.3732C25.2636 20.3249 25.7618 18.6478 27.4459 18.6478C27.7412 18.645 28.0341 18.7037 28.3078 18.8203C28.5815 18.9369 28.8306 19.1093 29.0408 19.3274C29.2509 19.5456 29.4181 19.8053 29.5326 20.0916C29.6471 20.3779 29.7067 20.6852 29.708 20.9958C29.6867 21.6247 29.4429 22.2226 29.0245 22.6724C28.6061 23.1222 28.0432 23.3915 27.4459 23.4277H27.416Z" fill="url(#paint0_linear_29_498)"/>
</g>
<defs>
<filter id="filter0_b_29_498" x="-200" y="-200" width="444" height="444" filterUnits="userSpaceOnUse" color-interpolation-filters="sRGB">
<feFlood flood-opacity="0" result="BackgroundImageFix"/>
<feGaussianBlur in="BackgroundImage" stdDeviation="100"/>
<feComposite in2="SourceAlpha" operator="in" result="effect1_backgroundBlur_29_498"/>
<feBlend mode="normal" in="SourceGraphic" in2="effect1_backgroundBlur_29_498" result="shape"/>
</filter>
<linearGradient id="paint0_linear_29_498" x1="12" y1="15" x2="26.4" y2="34.2" gradientUnits="userSpaceOnUse">
<stop stop-color="#0A5EAC"/>
<stop offset="1" stop-color="#0273A0"/>
</linearGradient>
</defs>
</svg>
