<svg width="70" height="70" viewBox="0 0 70 70" fill="none" xmlns="http://www.w3.org/2000/svg">
<rect width="70" height="70" rx="35" fill="#95A9B2" fill-opacity="0.2"/>
<circle cx="35" cy="35" r="27" fill="#BFD1DB"/>
<path d="M25.2523 45.144C23.8923 45.144 22.6763 44.864 21.6043 44.304C20.5483 43.728 19.7163 42.944 19.1083 41.952C18.5003 40.944 18.1963 39.808 18.1963 38.544V28.176H21.8203V38.328C21.8203 39 21.9723 39.608 22.2763 40.152C22.5803 40.68 22.9883 41.104 23.5003 41.424C24.0283 41.744 24.6123 41.904 25.2523 41.904C25.9083 41.904 26.5003 41.744 27.0283 41.424C27.5723 41.104 27.9963 40.68 28.3003 40.152C28.6203 39.608 28.7803 39 28.7803 38.328V28.176H32.2843V38.544C32.2843 39.808 31.9803 40.944 31.3723 41.952C30.7643 42.944 29.9243 43.728 28.8523 44.304C27.7963 44.864 26.5963 45.144 25.2523 45.144ZM46.2539 45L41.0459 37.464L34.3739 28.2H38.7899L43.8779 35.64L50.6699 45H46.2539ZM34.2539 45L40.6619 35.856L43.3979 37.752L38.4299 45H34.2539ZM44.2619 37.2L41.5499 35.376L46.2539 28.2H50.4299L44.2619 37.2Z" fill="url(#paint0_linear_272_409)"/>
<defs>
<linearGradient id="paint0_linear_272_409" x1="16" y1="21" x2="45.6471" y2="55.5882" gradientUnits="userSpaceOnUse">
<stop stop-color="#0A5EAC"/>
<stop offset="1" stop-color="#0273A0"/>
</linearGradient>
</defs>
</svg>
